<svg id="behance" xmlns="http://www.w3.org/2000/svg" width="27.013" height="26.991" viewBox="0 0 27.013 26.991">
  <g id="Group_227" data-name="Group 227" transform="translate(7.498 9.854)">
    <g id="Group_226" data-name="Group 226">
      <path id="Path_50" data-name="Path 50" d="M142.956,184.2H140v2.356h2.763c.493,0,.921-.129.921-1.264S142.956,184.2,142.956,184.2Z" transform="translate(-140 -184.196)" fill="#fff"/>
    </g>
  </g>
  <g id="Group_229" data-name="Group 229" transform="translate(7.498 13.924)">
    <g id="Group_228" data-name="Group 228">
      <path id="Path_51" data-name="Path 51" d="M142.956,260.2H140v3h2.785c.428,0,1.242-.171,1.242-1.457C144.049,260.221,142.956,260.2,142.956,260.2Z" transform="translate(-140 -260.2)" fill="#fff"/>
    </g>
  </g>
  <g id="Group_231" data-name="Group 231" transform="translate(0 0)">
    <g id="Group_230" data-name="Group 230">
      <path id="Path_52" data-name="Path 52" d="M20.222.2H6.769A6.784,6.784,0,0,0,0,6.969V20.443a6.779,6.779,0,0,0,6.769,6.748H20.243a6.784,6.784,0,0,0,6.769-6.769V6.969A6.816,6.816,0,0,0,20.222.2Zm-4.37,8.569h4.5V9.84h-4.5Zm-2.1,7.048a3.371,3.371,0,0,1-3.3,3.449H5.141V8.126h5.291a2.72,2.72,0,0,1,2.956,2.913A1.84,1.84,0,0,1,11.8,13.117C13.9,13.1,13.753,15.816,13.753,15.816Zm8.076-.193h-5.42c0,2.142,1.842,1.971,1.842,1.971,1.735,0,1.671-1.114,1.671-1.114h1.842c0,3-3.577,2.87-3.577,2.87-4.284,0-4.006-4.22-4.006-4.22s0-4.241,4.006-4.241C22.407,10.868,21.829,15.623,21.829,15.623Z" transform="translate(0 -0.2)" fill="#fff"/>
    </g>
  </g>
  <g id="Group_233" data-name="Group 233" transform="translate(16.387 12.232)">
    <g id="Group_232" data-name="Group 232">
      <path id="Path_53" data-name="Path 53" d="M307.842,228.6A1.933,1.933,0,0,0,306,230.292h3.427A1.609,1.609,0,0,0,307.842,228.6Z" transform="translate(-306 -228.6)" fill="#fff"/>
    </g>
  </g>
</svg>
