<svg id="facebook" xmlns="http://www.w3.org/2000/svg" width="27.42" height="27.42" viewBox="0 0 27.42 27.42">
  <path id="Path_54" data-name="Path 54" d="M291.2,508.668q-.171.028-.344.051Q291.028,508.7,291.2,508.668Zm0,0" transform="translate(-275.279 -481.427)" fill="#fff"/>
  <path id="Path_55" data-name="Path 55" d="M299.5,507.793l-.164.029Zm0,0" transform="translate(-283.309 -480.599)" fill="#fff"/>
  <path id="Path_56" data-name="Path 56" d="M278.013,510.34q-.2.023-.4.04Q277.812,510.363,278.013,510.34Zm0,0" transform="translate(-262.743 -483.009)" fill="#fff"/>
  <path id="Path_57" data-name="Path 57" d="M286.639,509.738l-.193.024Zm0,0" transform="translate(-271.105 -482.44)" fill="#fff"/>
  <path id="Path_58" data-name="Path 58" d="M306.809,506.41l-.145.03Zm0,0" transform="translate(-290.241 -479.29)" fill="#fff"/>
  <path id="Path_59" data-name="Path 59" d="M324.6,502.113l-.117.032Zm0,0" transform="translate(-307.107 -475.223)" fill="#fff"/>
  <path id="Path_60" data-name="Path 60" d="M319.186,503.543l-.127.033Zm0,0" transform="translate(-301.972 -476.576)" fill="#fff"/>
  <path id="Path_61" data-name="Path 61" d="M312.2,505.254l-.135.03Zm0,0" transform="translate(-295.354 -478.196)" fill="#fff"/>
  <path id="Path_62" data-name="Path 62" d="M273.7,511.09l-.217.016Zm0,0" transform="translate(-258.834 -483.719)" fill="#fff"/>
  <path id="Path_63" data-name="Path 63" d="M27.42,13.71A13.71,13.71,0,1,0,13.71,27.42c.081,0,.161,0,.241,0V16.744H11.005V13.311h2.945V10.785c0-2.93,1.788-4.524,4.4-4.524a24.246,24.246,0,0,1,2.641.135V9.458h-1.8c-1.422,0-1.7.676-1.7,1.667v2.186h3.4l-.443,3.433H17.494V26.89A13.717,13.717,0,0,0,27.42,13.71Zm0,0" fill="#fff"/>
  <path id="Path_64" data-name="Path 64" d="M265.32,511.43q-.214.014-.43.021Q265.106,511.444,265.32,511.43Zm0,0" transform="translate(-250.705 -484.041)" fill="#fff"/>
  <path id="Path_65" data-name="Path 65" d="M260.732,511.836l-.228.006Zm0,0" transform="translate(-246.553 -484.425)" fill="#fff"/>
</svg>
