<svg id="instagram" xmlns="http://www.w3.org/2000/svg" width="27.42" height="27.42" viewBox="0 0 27.42 27.42">
  <g id="Group_235" data-name="Group 235">
    <g id="Group_234" data-name="Group 234">
      <path id="Path_66" data-name="Path 66" d="M18.851,0H8.569A8.57,8.57,0,0,0,0,8.569V18.851A8.57,8.57,0,0,0,8.569,27.42H18.851a8.57,8.57,0,0,0,8.569-8.569V8.569A8.57,8.57,0,0,0,18.851,0Zm6,18.851a6,6,0,0,1-6,6H8.569a6,6,0,0,1-6-6V8.569a6,6,0,0,1,6-6H18.851a6,6,0,0,1,6,6Z" fill="#fff"/>
    </g>
  </g>
  <g id="Group_237" data-name="Group 237" transform="translate(6.855 6.855)">
    <g id="Group_236" data-name="Group 236">
      <path id="Path_67" data-name="Path 67" d="M134.855,128a6.855,6.855,0,1,0,6.855,6.855A6.855,6.855,0,0,0,134.855,128Zm0,11.139a4.284,4.284,0,1,1,4.284-4.284A4.29,4.29,0,0,1,134.855,139.139Z" transform="translate(-128 -128)" fill="#fff"/>
    </g>
  </g>
  <g id="Group_239" data-name="Group 239" transform="translate(20.165 5.427)">
    <g id="Group_238" data-name="Group 238">
      <circle id="Ellipse_1" data-name="Ellipse 1" cx="0.913" cy="0.913" r="0.913" fill="#fff"/>
    </g>
  </g>
</svg>
