<svg xmlns="http://www.w3.org/2000/svg" width="542" height="557.498" viewBox="0 0 542 557.498">
  <g id="Group_458" data-name="Group 458" transform="translate(1)">
    <g id="Group_428" data-name="Group 428" transform="translate(43.016 0)">
      <path id="Path_2004" data-name="Path 2004" d="M438.789,209.028a74.934,74.934,0,1,0,74.934,74.934A74.935,74.935,0,0,0,438.789,209.028Zm0,132.238a57.3,57.3,0,1,1,57.3-57.3A57.3,57.3,0,0,1,438.789,341.266Z" transform="translate(-313.6 -108.843)" fill="#0d0d0d"/>
      <path id="Path_2005" data-name="Path 2005" d="M397.59,283.962a74.934,74.934,0,1,0,74.934-74.934A74.931,74.931,0,0,0,397.59,283.962Zm17.631,0a57.3,57.3,0,1,1,57.3,57.3A57.3,57.3,0,0,1,415.221,283.962Z" transform="translate(-140.027 -108.843)" fill="#0d0d0d"/>
      <g id="Group_427" data-name="Group 427" transform="translate(98.716 148.646)">
        <path id="Path_2006" data-name="Path 2006" d="M397.01,226.568a17.935,17.935,0,0,1,2.771-9.574c-.522-.031-1.038-.08-1.567-.08a26.473,26.473,0,1,0,26.473,26.473c0-.528-.049-1.045-.08-1.567a17.842,17.842,0,0,1-9.568,2.771A18.024,18.024,0,0,1,397.01,226.568Z" transform="translate(-371.741 -216.914)" fill="#0d0d0d"/>
        <path id="Path_2007" data-name="Path 2007" d="M431.949,226.568a17.941,17.941,0,0,1,2.735-9.513,26.916,26.916,0,0,0-2.735-.141,26.473,26.473,0,1,0,26.474,26.473c0-.295-.037-.584-.043-.879a18.02,18.02,0,0,1-26.43-15.941Z" transform="translate(-198.168 -216.914)" fill="#0d0d0d"/>
      </g>
      <path id="Path_2008" data-name="Path 2008" d="M355.677,192.725s25.41,116.341,91.256,126.585,101.549,37.842,130.407,84.312c0,0,13.163-96.522-52.517-123.26S388.222,255.627,355.677,192.725Z" transform="translate(-355.677 -192.725)" fill="#4d4d4d"/>
      <path id="Path_2009" data-name="Path 2009" d="M616.65,192.725S591.24,309.066,525.388,319.31s-101.543,37.842-130.4,84.312c0,0-13.163-96.522,52.517-123.26S584.105,255.627,616.65,192.725Z" transform="translate(-158.963 -192.725)" fill="#4d4d4d"/>
      <path id="Path_2010" data-name="Path 2010" d="M584.517,257.3c-177.19-1.469-228.84-64.58-228.84-64.58s23.573,84.558,125.19,91.539c104.554,7.178,96.473,119.358,96.473,119.358S547.726,410.8,547.726,445.8c0,22.5,33.012,66.319,36.791,64.61,3.786,1.708,36.8-42.113,36.8-64.61,0-35-29.614-42.181-29.614-42.181s-8.081-112.18,96.473-119.358c101.617-6.981,125.19-91.539,125.19-91.539S761.714,255.836,584.517,257.3Z" transform="translate(-355.677 -192.725)" fill="#0d0d0d"/>
      <path id="Path_2011" data-name="Path 2011" d="M355.677,192.725s36.3,98.255,125.19,110.576S584.517,417.952,584.517,440.7" transform="translate(-355.677 -192.725)" fill="none"/>
      <path id="Path_2012" data-name="Path 2012" d="M621.762,192.725s-36.3,98.255-125.19,110.576S392.916,417.952,392.916,440.7" transform="translate(-164.076 -192.725)" fill="none"/>
      <path id="Path_2013" data-name="Path 2013" d="M366.638,230.81l-2.716,41.474,35.9-17.7A79.216,79.216,0,0,1,366.638,230.81Z" transform="translate(-313.255 3.229)" fill="#0d0d0d"/>
      <path id="Path_2014" data-name="Path 2014" d="M370.724,235.368l18.38,37.277,22.24-33.276A79.187,79.187,0,0,1,370.724,235.368Z" transform="translate(-278.257 26.681)" fill="#0d0d0d"/>
      <path id="Path_2015" data-name="Path 2015" d="M380.471,223.683l-23.094,34.561,39.943,2.618A79.152,79.152,0,0,1,380.471,223.683Z" transform="translate(-346.925 -33.44)" fill="#0d0d0d"/>
      <path id="Path_2016" data-name="Path 2016" d="M449.253,230.81l2.717,41.474-35.9-17.7A79.219,79.219,0,0,0,449.253,230.81Z" transform="translate(-44.949 3.229)" fill="#0d0d0d"/>
      <path id="Path_2017" data-name="Path 2017" d="M449.119,235.368l-18.38,37.277L408.5,239.368A79.187,79.187,0,0,0,449.119,235.368Z" transform="translate(-83.898 26.681)" fill="#0d0d0d"/>
      <path id="Path_2018" data-name="Path 2018" d="M438.805,223.683,461.9,258.244l-39.944,2.618A79.147,79.147,0,0,0,438.805,223.683Z" transform="translate(-14.665 -33.44)" fill="#0d0d0d"/>
    </g>
    <g id="Group_429" data-name="Group 429" transform="translate(0 287.497)">
      <text id="Neofoto" transform="translate(270 191)" fill="#0d0d0d" font-size="171" font-family="Apple-Chancery, Apple Chancery"><tspan x="-270.068" y="0">Neofoto</tspan></text>
    </g>
  </g>
</svg>
