<svg xmlns="http://www.w3.org/2000/svg" width="80" height="80" viewBox="0 0 80 80">
  <g id="Group_403" data-name="Group 403" transform="translate(1357.862 694)">
    <circle id="Ellipse_39" data-name="Ellipse 39" cx="40" cy="40" r="40" transform="translate(-1357.862 -694)" fill="#696969" opacity="0.5"/>
    <path id="left-arrow" d="M19.423.378a1.32,1.32,0,0,0-1.849,0,1.246,1.246,0,0,0,0,1.782l9.376,9.128H1.313A1.286,1.286,0,0,0,0,12.548a1.3,1.3,0,0,0,1.313,1.278H26.95l-9.376,9.111a1.268,1.268,0,0,0,0,1.8,1.32,1.32,0,0,0,1.849,0l11.6-11.289a1.246,1.246,0,0,0,0-1.782Z" transform="translate(-1330.443 -637.631) rotate(-90)" fill="#fff"/>
  </g>
</svg>
